<svg id="flat" height="512" viewBox="0 0 512 512" width="512" xmlns="http://www.w3.org/2000/svg"><rect fill="#548aff" height="304" rx="24" width="224" x="48" y="24"/><path d="m184 200h48v96h-48z" fill="#ffc431"/><path d="m296 408h80v80h-80z" fill="#ffa100"/><path d="m296 440h80v16h-80z" fill="#f78e00"/><path d="m376 368h112v120h-112z" fill="#ffc431"/><path d="m448 288v-40h-32v-40h-112v40h32v40h16v40h-16v40h112v-40h16v-40z" fill="#ffc431"/><circle cx="376" cy="144" fill="#ffb401" r="64"/><path d="m372.001 128h27.999v-16h-16v-8h-16v8.40332a20.00151 20.00151 0 0 0 4.00342 39.59863h.00586l7.98779-.0039h.001a4.001 4.001 0 1 1 .00093 8.00195h-27.999v16h16v8h16v-8.40332a20.00151 20.00151 0 0 0 -4.00342-39.59863h-.00586l-7.98779.0039h-.001a4.001 4.001 0 1 1 -.00093-8.00195z" fill="#f78e00"/><path d="m208 120h-96l-24-24v-32h144v32z" fill="#8be0e8"/><path d="m232 200v-48h-144v144h96v-96z" fill="#8098ab"/><path d="m232 192h-40v-40h-16v40h-32v-40h-16v40h-40v16h40v32h-40v16h40v40h16v-40h32v40h16v-88h40zm-56 48h-32v-32h32z" fill="#718799"/><path d="m24 360h272v128h-272z" fill="#08d175"/><path d="m48 384h72v16h-72z" fill="#02c26a"/><path d="m48 416h72v16h-72z" fill="#02c26a"/><path d="m200 384h96v16h-96z" fill="#02c26a"/><path d="m200 416h96v16h-96z" fill="#02c26a"/><path d="m200 448h96v16h-96z" fill="#02c26a"/><path d="m48 448h72v16h-72z" fill="#02c26a"/><path d="m120 360h80v128h-80z" fill="#ffc431"/><g fill="#ffb401"><path d="m376 440h112v16h-112z"/><path d="m376 400h112v16h-112z"/><path d="m336 352h112v16h-112z"/><path d="m352 312h112v16h-112z"/><path d="m336 272h112v16h-112z"/><path d="m304 232h112v16h-112z"/></g></svg>