<?xml version="1.0" encoding="iso-8859-1"?>
<!-- Generator: Adobe Illustrator 19.0.0, SVG Export Plug-In . SVG Version: 6.00 Build 0)  -->
<svg version="1.1" id="Layer_1" xmlns="http://www.w3.org/2000/svg" xmlns:xlink="http://www.w3.org/1999/xlink" x="0px" y="0px"
	 viewBox="0 0 512.001 512.001" style="enable-background:new 0 0 512.001 512.001;" xml:space="preserve">
<path style="fill:#E6AF78;" d="M296.419,99.636l-19.338-9.669c-2.798-1.399-4.565-4.258-4.565-7.386V66.065h-33.032v16.516
	c0,3.128-1.767,5.988-4.565,7.386l-19.338,9.669c-5.595,2.798-9.129,8.516-9.129,14.772v34.237h99.097v-34.237
	C305.548,108.153,302.014,102.434,296.419,99.636z"/>
<path style="fill:#D29B6E;" d="M239.484,66.065v16.516c0,1.762-0.607,3.403-1.597,4.782c5.618,2.217,11.717,3.476,18.113,3.476
	c6.396,0,12.495-1.259,18.113-3.476c-0.989-1.379-1.597-3.02-1.597-4.782V66.065H239.484z"/>
<path style="fill:#707487;" d="M296.419,99.636l-15.063-7.532c-6.059,7.328-15.104,12.097-25.356,12.097
	c-10.252,0-19.297-4.769-25.356-12.097l-15.063,7.532c-5.595,2.798-9.13,8.517-9.13,14.772v34.237h99.097v-34.237
	C305.548,108.152,302.014,102.434,296.419,99.636z"/>
<g>
	<path style="fill:#5B5D6E;" d="M231.226,132.129c0-5.199-2.448-10.094-6.607-13.213l-16.171-12.128
		c-1.22,2.324-1.996,4.895-1.996,7.62v34.237h24.774V132.129z"/>
	<path style="fill:#5B5D6E;" d="M280.774,132.129c0-5.199,2.448-10.094,6.607-13.213l16.171-12.128
		c1.22,2.324,1.996,4.895,1.996,7.62v34.237h-24.774V132.129z"/>
</g>
<path style="fill:#F0C087;" d="M256,74.323L256,74.323c-18.243,0-33.032-14.789-33.032-33.032V24.774
	C222.968,11.092,234.06,0,247.742,0h16.516c13.682,0,24.774,11.092,24.774,24.774V41.29C289.032,59.534,274.243,74.323,256,74.323z"
	/>
<path style="fill:#E6AF78;" d="M247.742,41.29V24.774c0-12.268,8.939-22.383,20.645-24.358C267.037,0.189,265.672,0,264.258,0
	h-16.516c-13.682,0-24.774,11.092-24.774,24.774V41.29c0,18.243,14.789,33.032,33.032,33.032c4.388,0,8.556-0.896,12.387-2.45
	C256.291,66.968,247.742,55.146,247.742,41.29z"/>
<path style="fill:#694B4B;" d="M222.968,24.774c0,0,24.774,8.258,66.064,8.258v-8.258C289.032,11.092,277.94,0,264.258,0h-16.516
	C234.06,0,222.968,11.092,222.968,24.774L222.968,24.774z"/>
<path style="fill:#5A4146;" d="M247.742,24.774c0-12.268,8.939-22.383,20.645-24.358C267.037,0.189,265.672,0,264.258,0h-16.516
	c-13.682,0-24.774,11.092-24.774,24.774c0,0,8.882,2.937,24.774,5.308L247.742,24.774L247.742,24.774z"/>
<rect x="198.19" y="165.16" style="fill:#E6AF78;" width="115.61" height="198.19"/>
<rect x="198.19" y="280.77" style="fill:#D29B6E;" width="115.61" height="82.58"/>
<path style="fill:#F0C087;" d="M297.29,280.774v27.24c0,6.978,3.715,17.022,8.257,22.32l0.003,0.004
	c5.328,6.216,8.257,14.133,8.257,22.32v2.44h33.032v-4.805c0-6.661,2.383-13.102,6.717-18.159l3.081-3.595
	c3.695-4.31,6.717-12.482,6.717-18.159v-29.605c0-13.682-11.092-24.774-24.774-24.774h-16.516
	C308.382,256,297.29,267.092,297.29,280.774z"/>
<path style="fill:#E6AF78;" d="M326.195,330.337l-0.002-0.004c-2.271-5.298-4.129-15.342-4.129-22.32v-27.24
	c0-13.682,5.546-24.774,12.387-24.774h-12.387c-13.682,0-24.774,11.092-24.774,24.774v27.24c0,6.978,3.715,17.022,8.257,22.32
	l0.003,0.004c5.328,6.216,8.257,14.133,8.257,22.32v2.44h16.516v-2.44C330.323,344.47,328.858,336.553,326.195,330.337z"/>
<path style="fill:#694B4B;" d="M330.323,330.323L330.323,330.323c-18.243,0-33.032-14.789-33.032-33.032v-16.516
	c0-13.682,11.092-24.774,24.774-24.774h16.516c13.682,0,24.774,11.092,24.774,24.774v16.516
	C363.355,315.534,348.566,330.323,330.323,330.323z"/>
<path style="fill:#5A4146;" d="M326.043,329.891c-2.198-5.387-3.979-15.062-3.979-21.877v-27.24
	c0-13.682,5.546-24.774,12.387-24.774h-12.387c-13.682,0-24.774,11.092-24.774,24.774v16.516
	C297.29,314.068,309.844,327.772,326.043,329.891z"/>
<path style="fill:#AFB9D2;" d="M372.556,357.126l-18.335-7.334c-4.877-1.951-10.082-2.953-15.335-2.953h-17.128
	c-5.253,0-10.458,1.002-15.335,2.953l-18.334,7.334c-9.406,3.762-15.573,12.872-15.573,23.002v90.582
	c0,4.561,3.697,8.258,8.258,8.258h99.097c4.561,0,8.258-3.697,8.258-8.258v-90.582C388.129,369.997,381.962,360.888,372.556,357.126
	z"/>
<g>
	<path style="fill:#959CB5;" d="M297.29,478.968v-90.272c0-5.199-2.448-10.094-6.606-13.213l-13.32-9.989
		c-3.057,4.163-4.848,9.238-4.848,14.634v90.582c0,4.56,3.697,8.258,8.258,8.258L297.29,478.968L297.29,478.968z"/>
	<path style="fill:#959CB5;" d="M363.355,478.968v-90.272c0-5.199,2.448-10.094,6.606-13.213l13.32-9.989
		c3.057,4.163,4.848,9.238,4.848,14.634v90.582c0,4.56-3.697,8.258-8.258,8.258L363.355,478.968L363.355,478.968z"/>
</g>
<path style="fill:#F0C087;" d="M148.645,280.774v27.24c0,6.978,3.715,17.022,8.257,22.32l0.003,0.004
	c5.328,6.216,8.257,14.133,8.257,22.32v2.44h33.032v-4.805c0-6.661,2.383-13.102,6.717-18.159l3.081-3.595
	c3.695-4.31,6.717-12.482,6.717-18.159v-29.605c0-13.682-11.092-24.774-24.774-24.774h-16.516
	C159.737,256,148.645,267.092,148.645,280.774z"/>
<path style="fill:#E6AF78;" d="M177.549,330.337l-0.002-0.004c-2.271-5.298-4.129-15.342-4.129-22.32v-27.24
	c0-13.682,5.546-24.774,12.387-24.774h-12.387c-13.682,0-24.774,11.092-24.774,24.774v27.24c0,6.978,3.715,17.022,8.257,22.32
	l0.003,0.004c5.328,6.216,8.257,14.133,8.257,22.32v2.44h16.516v-2.44C181.677,344.47,180.213,336.553,177.549,330.337z"/>
<path style="fill:#694B4B;" d="M181.677,330.323L181.677,330.323c-18.243,0-33.032-14.789-33.032-33.032v-16.516
	c0-13.682,11.092-24.774,24.774-24.774h16.516c13.682,0,24.774,11.092,24.774,24.774v16.516
	C214.71,315.534,199.921,330.323,181.677,330.323z"/>
<path style="fill:#5A4146;" d="M177.398,329.891c-2.198-5.387-3.979-15.062-3.979-21.877v-27.24
	c0-13.682,5.546-24.774,12.387-24.774h-12.387c-13.682,0-24.774,11.092-24.774,24.774v16.516
	C148.645,314.068,161.199,327.772,177.398,329.891z"/>
<path style="fill:#AFB9D2;" d="M223.911,357.126l-18.335-7.334c-4.877-1.951-10.082-2.953-15.335-2.953h-17.128
	c-5.253,0-10.458,1.002-15.335,2.953l-18.334,7.334c-9.406,3.762-15.573,12.872-15.573,23.002v90.582
	c0,4.561,3.697,8.258,8.258,8.258h99.097c4.561,0,8.258-3.697,8.258-8.258v-90.582C239.484,369.997,233.316,360.888,223.911,357.126
	z"/>
<g>
	<path style="fill:#959CB5;" d="M148.645,478.968v-90.272c0-5.199-2.448-10.094-6.606-13.213l-13.32-9.989
		c-3.057,4.163-4.848,9.238-4.848,14.634v90.582c0,4.56,3.697,8.258,8.258,8.258L148.645,478.968L148.645,478.968z"/>
	<path style="fill:#959CB5;" d="M214.71,478.968v-90.272c0-5.199,2.448-10.094,6.606-13.213l13.32-9.989
		c3.057,4.163,4.848,9.238,4.848,14.634v90.582c0,4.56-3.697,8.258-8.258,8.258L214.71,478.968L214.71,478.968z"/>
</g>
<path style="fill:#F0C087;" d="M371.613,363.355v27.24c0,6.978,3.715,17.022,8.257,22.32l0.003,0.004
	c5.328,6.216,8.257,14.133,8.257,22.32v2.44h33.032v-4.805c0-6.661,2.383-13.102,6.717-18.159l3.081-3.595
	c3.695-4.31,6.717-12.482,6.717-18.159v-29.605c0-13.682-11.092-24.774-24.774-24.774h-16.516
	C382.705,338.581,371.613,349.672,371.613,363.355z"/>
<path style="fill:#E6AF78;" d="M400.517,412.918l-0.002-0.004c-2.271-5.298-4.129-15.342-4.129-22.32v-27.24
	c0-13.682,5.546-24.774,12.387-24.774h-12.387c-13.682,0-24.774,11.092-24.774,24.774v27.24c0,6.978,3.715,17.022,8.257,22.32
	l0.003,0.004c5.328,6.216,8.257,14.133,8.257,22.32v2.44h16.516v-2.44C404.645,427.05,403.181,419.134,400.517,412.918z"/>
<path style="fill:#694B4B;" d="M404.645,412.903L404.645,412.903c-18.243,0-33.032-14.789-33.032-33.032v-16.516
	c0-13.682,11.092-24.774,24.774-24.774h16.516c13.682,0,24.774,11.092,24.774,24.774v16.516
	C437.677,398.114,422.888,412.903,404.645,412.903z"/>
<path style="fill:#5A4146;" d="M400.366,412.472c-2.198-5.387-3.979-15.062-3.979-21.877v-27.24
	c0-13.682,5.546-24.774,12.387-24.774h-12.387c-13.682,0-24.774,11.092-24.774,24.774v16.516
	C371.613,396.648,384.166,410.353,400.366,412.472z"/>
<path style="fill:#959CB5;" d="M446.879,439.706l-18.335-7.334c-4.877-1.951-10.082-2.953-15.335-2.953h-17.128
	c-5.253,0-10.458,1.002-15.335,2.953l-18.334,7.334c-9.406,3.762-15.573,12.872-15.573,23.002v41.034
	c0,4.561,3.697,8.258,8.258,8.258h99.097c4.561,0,8.258-3.697,8.258-8.258v-41.034C462.452,452.578,456.284,443.469,446.879,439.706
	z"/>
<g>
	<path style="fill:#7F8499;" d="M371.613,512v-40.723c0-5.199-2.448-10.094-6.606-13.213l-13.32-9.989
		c-3.057,4.163-4.848,9.238-4.848,14.634v41.034c0,4.56,3.697,8.258,8.258,8.258L371.613,512L371.613,512z"/>
	<path style="fill:#7F8499;" d="M437.677,512v-40.723c0-5.199,2.448-10.094,6.606-13.213l13.32-9.989
		c3.057,4.163,4.848,9.238,4.848,14.634v41.034c0,4.56-3.697,8.258-8.258,8.258L437.677,512L437.677,512z"/>
</g>
<path style="fill:#F0C087;" d="M222.968,363.355v27.24c0,6.978,3.715,17.022,8.257,22.32l0.003,0.004
	c5.328,6.216,8.257,14.133,8.257,22.32v2.44h33.032v-4.805c0-6.661,2.383-13.102,6.717-18.159l3.081-3.595
	c3.695-4.31,6.717-12.482,6.717-18.159v-29.605c0-13.682-11.092-24.774-24.774-24.774h-16.516
	C234.06,338.581,222.968,349.672,222.968,363.355z"/>
<path style="fill:#E6AF78;" d="M251.872,412.918l-0.002-0.004c-2.271-5.298-4.129-15.342-4.129-22.32v-27.24
	c0-13.682,5.546-24.774,12.387-24.774h-12.387c-13.682,0-24.774,11.092-24.774,24.774v27.24c0,6.978,3.715,17.022,8.257,22.32
	l0.003,0.004c5.328,6.216,8.257,14.133,8.257,22.32v2.44H256v-2.44C256,427.05,254.536,419.134,251.872,412.918z"/>
<path style="fill:#694B4B;" d="M256,412.903L256,412.903c-18.243,0-33.032-14.789-33.032-33.032v-16.516
	c0-13.682,11.092-24.774,24.774-24.774h16.516c13.682,0,24.774,11.092,24.774,24.774v16.516
	C289.032,398.114,274.243,412.903,256,412.903z"/>
<path style="fill:#5A4146;" d="M251.721,412.472c-2.198-5.387-3.979-15.062-3.979-21.877v-27.24
	c0-13.682,5.546-24.774,12.387-24.774h-12.387c-13.682,0-24.774,11.092-24.774,24.774v16.516
	C222.968,396.648,235.521,410.353,251.721,412.472z"/>
<path style="fill:#959CB5;" d="M298.233,439.706l-18.335-7.334c-4.877-1.951-10.082-2.953-15.335-2.953h-17.128
	c-5.253,0-10.458,1.002-15.335,2.953l-18.334,7.334c-9.406,3.762-15.573,12.872-15.573,23.002v41.034
	c0,4.561,3.697,8.258,8.258,8.258h99.097c4.561,0,8.258-3.697,8.258-8.258v-41.034C313.806,452.578,307.639,443.469,298.233,439.706
	z"/>
<g>
	<path style="fill:#7F8499;" d="M222.968,512v-40.723c0-5.199-2.448-10.094-6.606-13.213l-13.32-9.989
		c-3.057,4.163-4.848,9.238-4.848,14.634v41.034c0,4.56,3.697,8.258,8.258,8.258L222.968,512L222.968,512z"/>
	<path style="fill:#7F8499;" d="M289.032,512v-40.723c0-5.199,2.448-10.094,6.606-13.213l13.32-9.989
		c3.057,4.163,4.848,9.238,4.848,14.634v41.034c0,4.56-3.697,8.258-8.258,8.258L289.032,512L289.032,512z"/>
</g>
<path style="fill:#F0C087;" d="M74.323,363.355v27.24c0,6.978,3.715,17.022,8.257,22.32l0.003,0.004
	c5.328,6.216,8.257,14.133,8.257,22.32v2.44h33.032v-4.805c0-6.661,2.383-13.102,6.717-18.159l3.081-3.595
	c3.695-4.31,6.717-12.482,6.717-18.159v-29.605c0-13.682-11.092-24.774-24.774-24.774H99.097
	C85.414,338.581,74.323,349.672,74.323,363.355z"/>
<path style="fill:#E6AF78;" d="M103.227,412.918l-0.002-0.004c-2.271-5.298-4.129-15.342-4.129-22.32v-27.24
	c0-13.682,5.546-24.774,12.387-24.774H99.097c-13.682,0-24.774,11.092-24.774,24.774v27.24c0,6.978,3.715,17.022,8.257,22.32
	l0.003,0.004c5.328,6.216,8.257,14.133,8.257,22.32v2.44h16.516v-2.44C107.355,427.05,105.891,419.134,103.227,412.918z"/>
<path style="fill:#694B4B;" d="M107.355,412.903L107.355,412.903c-18.243,0-33.032-14.789-33.032-33.032v-16.516
	c0-13.682,11.092-24.774,24.774-24.774h16.516c13.682,0,24.774,11.092,24.774,24.774v16.516
	C140.387,398.114,125.598,412.903,107.355,412.903z"/>
<path style="fill:#5A4146;" d="M103.076,412.472c-2.198-5.387-3.979-15.062-3.979-21.877v-27.24
	c0-13.682,5.546-24.774,12.387-24.774H99.097c-13.682,0-24.774,11.092-24.774,24.774v16.516
	C74.323,396.648,86.876,410.353,103.076,412.472z"/>
<path style="fill:#959CB5;" d="M149.588,439.706l-18.335-7.334c-4.877-1.951-10.082-2.953-15.335-2.953H98.79
	c-5.253,0-10.458,1.002-15.335,2.953l-18.334,7.334c-9.406,3.762-15.573,12.872-15.573,23.002v41.034
	c0,4.561,3.697,8.258,8.258,8.258h99.097c4.561,0,8.258-3.697,8.258-8.258v-41.034C165.161,452.578,158.994,443.469,149.588,439.706
	z"/>
<g>
	<path style="fill:#7F8499;" d="M74.323,512v-40.723c0-5.199-2.448-10.094-6.606-13.213l-13.32-9.989
		c-3.057,4.163-4.848,9.238-4.848,14.634v41.034c0,4.56,3.697,8.258,8.258,8.258L74.323,512L74.323,512z"/>
	<path style="fill:#7F8499;" d="M140.387,512v-40.723c0-5.199,2.448-10.094,6.606-13.213l13.32-9.989
		c3.057,4.163,4.848,9.238,4.848,14.634v41.034c0,4.56-3.697,8.258-8.258,8.258L140.387,512L140.387,512z"/>
</g>
<path style="fill:#F0C087;" d="M316.961,173.419H195.039c-3.128,0-5.987-1.767-7.386-4.565l-9.453-18.906
	c-2.196-4.393,0.998-9.561,5.909-9.561h143.782c4.911,0,8.105,5.168,5.909,9.561l-9.453,18.906
	C322.948,171.652,320.089,173.419,316.961,173.419z"/>
<path style="fill:#FFDC64;" d="M272.516,222.968h-33.032c-4.561,0-8.258-3.697-8.258-8.258v-8.258c0-4.561,3.697-8.258,8.258-8.258
	h33.032c4.561,0,8.258,3.697,8.258,8.258v8.258C280.774,219.27,277.077,222.968,272.516,222.968z"/>
<path style="fill:#D29B6E;" d="M313.806,173.419H198.194v-8.258c0-4.561,3.697-8.258,8.258-8.258h99.097
	c4.561,0,8.258,3.697,8.258,8.258v8.258H313.806z"/>
<g>
</g>
<g>
</g>
<g>
</g>
<g>
</g>
<g>
</g>
<g>
</g>
<g>
</g>
<g>
</g>
<g>
</g>
<g>
</g>
<g>
</g>
<g>
</g>
<g>
</g>
<g>
</g>
<g>
</g>
</svg>
